<?xml version="1.0" encoding="utf-8"?>
<!-- Generator: Adobe Illustrator 24.3.0, SVG Export Plug-In . SVG Version: 6.00 Build 0)  -->
<svg version="1.1" id="Layer_1" xmlns="http://www.w3.org/2000/svg" xmlns:xlink="http://www.w3.org/1999/xlink" x="0px" y="0px"
	 viewBox="0 0 1439 360" style="enable-background:new 0 0 1439 360;" xml:space="preserve">
<style type="text/css">
	.st0{opacity:7.100000e-02;}
	.st1{fill:#F2FFFF;stroke:#000000;stroke-miterlimit:10;}
</style>
<g transform="translate(-171 -373)" class="st0">
	<path class="st1" d="M108.2,1013.1L108.2,1013.1c60.6,60.6,158.9,60.6,219.5,0L608.8,732c60.6-60.6,60.6-158.9,0-219.5l0,0
		c-60.6-60.6-158.9-60.6-219.5,0L108.2,793.6C47.6,854.2,47.6,952.5,108.2,1013.1z"/>
	<path class="st1" d="M1172.2,610.1L1172.2,610.1c60.6,60.6,158.9,60.6,219.5,0L1672.8,329c60.6-60.6,60.6-158.9,0-219.5l0,0
		c-60.6-60.6-158.9-60.6-219.5,0l-281.1,281.1C1111.6,451.2,1111.6,549.5,1172.2,610.1z"/>
</g>
</svg>
